<svg width="20" height="21" viewBox="0 0 20 21" fill="none" xmlns="http://www.w3.org/2000/svg">
<path d="M9.9974 19.4584C5.05573 19.4584 1.03906 15.4417 1.03906 10.5C1.03906 5.55835 5.05573 1.54169 9.9974 1.54169C14.9391 1.54169 18.9557 5.55835 18.9557 10.5C18.9557 15.4417 14.9391 19.4584 9.9974 19.4584ZM9.9974 2.79169C5.7474 2.79169 2.28906 6.25002 2.28906 10.5C2.28906 14.75 5.7474 18.2084 9.9974 18.2084C14.2474 18.2084 17.7057 14.75 17.7057 10.5C17.7057 6.25002 14.2474 2.79169 9.9974 2.79169Z" fill="#717171"/>
<path d="M13.3307 11.125H6.66406C6.3224 11.125 6.03906 10.8417 6.03906 10.5C6.03906 10.1583 6.3224 9.875 6.66406 9.875H13.3307C13.6724 9.875 13.9557 10.1583 13.9557 10.5C13.9557 10.8417 13.6724 11.125 13.3307 11.125Z" fill="#717171"/>
<path d="M10 14.4584C9.65833 14.4584 9.375 14.175 9.375 13.8334V7.16669C9.375 6.82502 9.65833 6.54169 10 6.54169C10.3417 6.54169 10.625 6.82502 10.625 7.16669V13.8334C10.625 14.175 10.3417 14.4584 10 14.4584Z" fill="#717171"/>
</svg>
