<svg width="20" height="20" viewBox="0 0 20 20" fill="none" xmlns="http://www.w3.org/2000/svg">
<path d="M14.5391 18.9583C13.5974 18.9583 12.6057 18.7333 11.5807 18.3C10.5807 17.875 9.5724 17.2917 8.58906 16.5833C7.61406 15.8667 6.6724 15.0667 5.78073 14.1917C4.8974 13.3 4.0974 12.3583 3.38906 11.3917C2.6724 10.3917 2.0974 9.39166 1.68906 8.42499C1.25573 7.39166 1.03906 6.39166 1.03906 5.44999C1.03906 4.79999 1.15573 4.18332 1.38073 3.60832C1.61406 3.01666 1.98906 2.46666 2.4974 1.99166C3.13906 1.35832 3.8724 1.04166 4.65573 1.04166C4.98073 1.04166 5.31406 1.11666 5.5974 1.24999C5.9224 1.39999 6.1974 1.62499 6.3974 1.92499L8.33073 4.64999C8.50573 4.89166 8.63906 5.12499 8.73073 5.35832C8.83906 5.60832 8.8974 5.85832 8.8974 6.09999C8.8974 6.41666 8.80573 6.72499 8.63073 7.01666C8.50573 7.24166 8.31406 7.48332 8.0724 7.72499L7.50573 8.31666C7.51406 8.34166 7.5224 8.35832 7.53073 8.37499C7.63073 8.54999 7.83073 8.84999 8.21406 9.29999C8.6224 9.76666 9.00573 10.1917 9.38906 10.5833C9.88073 11.0667 10.2891 11.45 10.6724 11.7667C11.1474 12.1667 11.4557 12.3667 11.6391 12.4583L11.6224 12.5L12.2307 11.9C12.4891 11.6417 12.7391 11.45 12.9807 11.325C13.4391 11.0417 14.0224 10.9917 14.6057 11.2333C14.8224 11.325 15.0557 11.45 15.3057 11.625L18.0724 13.5917C18.3807 13.8 18.6057 14.0667 18.7391 14.3833C18.8641 14.7 18.9224 14.9917 18.9224 15.2833C18.9224 15.6833 18.8307 16.0833 18.6557 16.4583C18.4807 16.8333 18.2641 17.1583 17.9891 17.4583C17.5141 17.9833 16.9974 18.3583 16.3974 18.6C15.8224 18.8333 15.1974 18.9583 14.5391 18.9583ZM4.65573 2.29166C4.1974 2.29166 3.7724 2.49166 3.36406 2.89166C2.98073 3.24999 2.71406 3.64166 2.5474 4.06666C2.3724 4.49999 2.28906 4.95832 2.28906 5.44999C2.28906 6.22499 2.4724 7.06666 2.83906 7.93332C3.21406 8.81666 3.73906 9.73332 4.40573 10.65C5.0724 11.5667 5.83073 12.4583 6.66406 13.3C7.4974 14.125 8.3974 14.8917 9.3224 15.5667C10.2224 16.225 11.1474 16.7583 12.0641 17.1417C13.4891 17.75 14.8224 17.8917 15.9224 17.4333C16.3474 17.2583 16.7224 16.9917 17.0641 16.6083C17.2557 16.4 17.4057 16.175 17.5307 15.9083C17.6307 15.7 17.6807 15.4833 17.6807 15.2667C17.6807 15.1333 17.6557 15 17.5891 14.85C17.5641 14.8 17.5141 14.7083 17.3557 14.6L14.5891 12.6333C14.4224 12.5167 14.2724 12.4333 14.1307 12.375C13.9474 12.3 13.8724 12.225 13.5891 12.4C13.4224 12.4833 13.2724 12.6083 13.1057 12.775L12.4724 13.4C12.1474 13.7167 11.6474 13.7917 11.2641 13.65L11.0391 13.55C10.6974 13.3667 10.2974 13.0833 9.85573 12.7083C9.45573 12.3667 9.0224 11.9667 8.4974 11.45C8.08906 11.0333 7.68073 10.5917 7.25573 10.1C6.86406 9.64166 6.58073 9.24999 6.40573 8.92499L6.30573 8.67499C6.25573 8.48332 6.23906 8.37499 6.23906 8.25832C6.23906 7.95832 6.3474 7.69166 6.55573 7.48332L7.18073 6.83332C7.3474 6.66666 7.4724 6.50832 7.55573 6.36666C7.6224 6.25832 7.6474 6.16666 7.6474 6.08332C7.6474 6.01666 7.6224 5.91666 7.58073 5.81666C7.5224 5.68332 7.43073 5.53332 7.31406 5.37499L5.38073 2.64166C5.2974 2.52499 5.1974 2.44166 5.0724 2.38332C4.93906 2.32499 4.7974 2.29166 4.65573 2.29166ZM11.6224 12.5083L11.4891 13.075L11.7141 12.4917C11.6724 12.4833 11.6391 12.4917 11.6224 12.5083Z" fill="#353535"/>
</svg>
