<svg width="20" height="21" viewBox="0 0 20 21" fill="none" xmlns="http://www.w3.org/2000/svg">
<path d="M12.4974 19.4583H7.4974C2.9724 19.4583 1.03906 17.525 1.03906 13V7.99999C1.03906 3.47499 2.9724 1.54166 7.4974 1.54166H9.16406C9.50573 1.54166 9.78906 1.82499 9.78906 2.16666C9.78906 2.50832 9.50573 2.79166 9.16406 2.79166H7.4974C3.65573 2.79166 2.28906 4.15832 2.28906 7.99999V13C2.28906 16.8417 3.65573 18.2083 7.4974 18.2083H12.4974C16.3391 18.2083 17.7057 16.8417 17.7057 13V11.3333C17.7057 10.9917 17.9891 10.7083 18.3307 10.7083C18.6724 10.7083 18.9557 10.9917 18.9557 11.3333V13C18.9557 17.525 17.0224 19.4583 12.4974 19.4583Z" fill="#717171"/>
<path d="M7.08214 15.2417C6.5738 15.2417 6.10714 15.0583 5.76547 14.725C5.35714 14.3167 5.18214 13.725 5.2738 13.1L5.63214 10.5917C5.69881 10.1083 6.01547 9.48332 6.35714 9.14165L12.9238 2.57499C14.5821 0.916655 16.2655 0.916655 17.9238 2.57499C18.8321 3.48332 19.2405 4.40832 19.1571 5.33332C19.0821 6.08332 18.6821 6.81665 17.9238 7.56665L11.3571 14.1333C11.0155 14.475 10.3905 14.7917 9.90714 14.8583L7.39881 15.2167C7.29047 15.2417 7.18214 15.2417 7.08214 15.2417ZM13.8071 3.45832L7.24047 10.025C7.08214 10.1833 6.8988 10.55 6.86547 10.7667L6.50714 13.275C6.4738 13.5167 6.5238 13.7167 6.6488 13.8417C6.7738 13.9667 6.9738 14.0167 7.21547 13.9833L9.7238 13.625C9.94047 13.5917 10.3155 13.4083 10.4655 13.25L17.0321 6.68332C17.5738 6.14165 17.8571 5.65832 17.8988 5.20832C17.9488 4.66665 17.6655 4.09165 17.0321 3.44999C15.6988 2.11665 14.7821 2.49165 13.8071 3.45832Z" fill="#717171"/>
<path d="M16.5442 8.69167C16.4859 8.69167 16.4276 8.68334 16.3776 8.66667C14.1859 8.05 12.4442 6.30834 11.8276 4.11667C11.7359 3.78334 11.9276 3.44167 12.2609 3.34167C12.5942 3.25 12.9359 3.44167 13.0276 3.775C13.5276 5.55 14.9359 6.95834 16.7109 7.45834C17.0442 7.55 17.2359 7.9 17.1442 8.23333C17.0692 8.51667 16.8192 8.69167 16.5442 8.69167Z" fill="#717171"/>
</svg>
