<svg width="21" height="20" viewBox="0 0 21 20" fill="none" xmlns="http://www.w3.org/2000/svg">
<path d="M8.2526 8.95833C6.98594 8.95833 5.96094 7.93333 5.96094 6.66667C5.96094 5.4 6.98594 4.375 8.2526 4.375C9.51927 4.375 10.5443 5.4 10.5443 6.66667C10.5443 7.93333 9.51927 8.95833 8.2526 8.95833ZM8.2526 5.625C7.6776 5.625 7.21094 6.09167 7.21094 6.66667C7.21094 7.24167 7.6776 7.70833 8.2526 7.70833C8.8276 7.70833 9.29427 7.24167 9.29427 6.66667C9.29427 6.09167 8.8276 5.625 8.2526 5.625Z" fill="#ADADAD"/>
<path d="M13.2474 18.9583H8.2474C3.7224 18.9583 1.78906 17.025 1.78906 12.5V7.50001C1.78906 2.97501 3.7224 1.04167 8.2474 1.04167H11.5807C11.9224 1.04167 12.2057 1.32501 12.2057 1.66667C12.2057 2.00834 11.9224 2.29167 11.5807 2.29167H8.2474C4.40573 2.29167 3.03906 3.65834 3.03906 7.50001V12.5C3.03906 16.3417 4.40573 17.7083 8.2474 17.7083H13.2474C17.0891 17.7083 18.4557 16.3417 18.4557 12.5V8.33334C18.4557 7.99167 18.7391 7.70834 19.0807 7.70834C19.4224 7.70834 19.7057 7.99167 19.7057 8.33334V12.5C19.7057 17.025 17.7724 18.9583 13.2474 18.9583Z" fill="#ADADAD"/>
<path d="M18.4583 4.79167H13.875C13.5333 4.79167 13.25 4.50834 13.25 4.16667C13.25 3.82501 13.5333 3.54167 13.875 3.54167H18.4583C18.8 3.54167 19.0833 3.82501 19.0833 4.16667C19.0833 4.50834 18.8 4.79167 18.4583 4.79167Z" fill="#ADADAD"/>
<path d="M16.1641 7.08333C15.8224 7.08333 15.5391 6.8 15.5391 6.45833V1.875C15.5391 1.53333 15.8224 1.25 16.1641 1.25C16.5057 1.25 16.7891 1.53333 16.7891 1.875V6.45833C16.7891 6.8 16.5057 7.08333 16.1641 7.08333Z" fill="#ADADAD"/>
<path d="M2.97443 16.4167C2.77443 16.4167 2.57443 16.3167 2.45776 16.1417C2.2661 15.8583 2.3411 15.4667 2.62443 15.275L6.73276 12.5167C7.63276 11.9167 8.87443 11.9833 9.6911 12.675L9.9661 12.9167C10.3828 13.275 11.0911 13.275 11.4994 12.9167L14.9661 9.94167C15.8578 9.18334 17.2411 9.18334 18.1328 9.94167L19.4911 11.1083C19.7494 11.3333 19.7828 11.725 19.5578 11.9917C19.3328 12.25 18.9411 12.2833 18.6744 12.0583L17.3161 10.8917C16.8994 10.5333 16.1911 10.5333 15.7828 10.8917L12.3161 13.8667C11.4328 14.625 10.0411 14.625 9.14943 13.8667L8.87443 13.625C8.4911 13.3 7.85776 13.2667 7.43276 13.5583L3.33276 16.3167C3.2161 16.3833 3.0911 16.4167 2.97443 16.4167Z" fill="#ADADAD"/>
</svg>
