<svg width="20" height="20" viewBox="0 0 20 20" fill="none" xmlns="http://www.w3.org/2000/svg">
<path d="M5.1467 18.9583C5.06336 18.9583 4.9717 18.95 4.8967 18.9417L3.08836 18.6917C2.2217 18.575 1.43836 17.8 1.30503 16.9167L1.05503 15.0917C0.971696 14.5083 1.2217 13.75 1.63836 13.325L5.2967 9.66668C4.70503 7.30001 5.38836 4.80001 7.13003 3.07501C9.83003 0.383341 14.2217 0.375007 16.93 3.07501C18.2384 4.38334 18.955 6.12501 18.955 7.97501C18.955 9.82501 18.2384 11.5667 16.93 12.875C15.18 14.6083 12.6884 15.2917 10.3384 14.6917L6.6717 18.35C6.3217 18.7167 5.6967 18.9583 5.1467 18.9583ZM12.0217 2.30001C10.5634 2.30001 9.11336 2.85001 8.00503 3.95834C6.50503 5.45001 5.96336 7.63334 6.58836 9.66668C6.65503 9.89168 6.5967 10.125 6.43003 10.2917L2.51336 14.2083C2.3717 14.35 2.25503 14.7167 2.28003 14.9083L2.53003 16.7333C2.58003 17.05 2.9217 17.4083 3.23836 17.45L5.05503 17.7C5.25503 17.7333 5.6217 17.6167 5.76336 17.475L9.6967 13.55C9.86336 13.3833 10.105 13.3333 10.3217 13.4C12.33 14.0333 14.5217 13.4917 16.0217 11.9917C17.0884 10.925 17.68 9.49167 17.68 7.97501C17.68 6.45001 17.0884 5.02501 16.0217 3.95834C14.9384 2.85834 13.48 2.30001 12.0217 2.30001Z" fill="#353535"/>
<path d="M7.65677 17.1167C7.49844 17.1167 7.3401 17.0583 7.2151 16.9333L5.29844 15.0167C5.05677 14.775 5.05677 14.375 5.29844 14.1333C5.5401 13.8917 5.9401 13.8917 6.18177 14.1333L8.09844 16.05C8.3401 16.2917 8.3401 16.6917 8.09844 16.9333C7.97344 17.0583 7.8151 17.1167 7.65677 17.1167Z" fill="#353535"/>
<path d="M12.0859 9.79166C11.0526 9.79166 10.2109 8.94999 10.2109 7.91666C10.2109 6.88332 11.0526 6.04166 12.0859 6.04166C13.1193 6.04166 13.9609 6.88332 13.9609 7.91666C13.9609 8.94999 13.1193 9.79166 12.0859 9.79166ZM12.0859 7.29166C11.7443 7.29166 11.4609 7.57499 11.4609 7.91666C11.4609 8.25832 11.7443 8.54166 12.0859 8.54166C12.4276 8.54166 12.7109 8.25832 12.7109 7.91666C12.7109 7.57499 12.4276 7.29166 12.0859 7.29166Z" fill="#353535"/>
</svg>
