<svg width="68" height="68" viewBox="0 0 68 68" fill="none" xmlns="http://www.w3.org/2000/svg">
<path d="M62.3307 34C62.3307 18.3883 49.6091 5.66667 33.9974 5.66667C18.3857 5.66667 5.66406 18.3883 5.66406 34C5.66406 42.2167 9.20573 49.6117 14.8157 54.7967C14.8157 54.825 14.8157 54.825 14.7874 54.8533C15.0707 55.1367 15.4107 55.3633 15.6941 55.6183C15.8641 55.76 16.0057 55.9017 16.1757 56.015C16.6857 56.44 17.2524 56.8367 17.7907 57.2333C17.9891 57.375 18.1591 57.4883 18.3574 57.63C18.8957 57.9983 19.4624 58.3383 20.0574 58.65C20.2557 58.7633 20.4824 58.905 20.6807 59.0183C21.2474 59.33 21.8424 59.6133 22.4657 59.8683C22.6924 59.9817 22.9191 60.095 23.1457 60.18C23.7691 60.435 24.3924 60.6617 25.0157 60.86C25.2424 60.945 25.4691 61.03 25.6957 61.0867C26.3757 61.285 27.0557 61.455 27.7357 61.625C27.9341 61.6817 28.1324 61.7383 28.3591 61.7667C29.1524 61.9367 29.9457 62.05 30.7674 62.135C30.8807 62.135 30.9941 62.1633 31.1074 62.1917C32.0707 62.2767 33.0341 62.3333 33.9974 62.3333C34.9607 62.3333 35.9241 62.2767 36.8591 62.1917C36.9724 62.1917 37.0857 62.1633 37.1991 62.135C38.0207 62.05 38.8141 61.9367 39.6074 61.7667C39.8057 61.7383 40.0041 61.6533 40.2307 61.625C40.9107 61.455 41.6191 61.3133 42.2707 61.0867C42.4974 61.0017 42.7241 60.9167 42.9507 60.86C43.5741 60.6333 44.2257 60.435 44.8207 60.18C45.0474 60.095 45.2741 59.9817 45.5007 59.8683C46.0957 59.6133 46.6907 59.33 47.2857 59.0183C47.5124 58.905 47.7107 58.7633 47.9091 58.65C48.4757 58.31 49.0424 57.9983 49.6091 57.63C49.8074 57.5167 49.9774 57.375 50.1757 57.2333C50.7424 56.8367 51.2807 56.44 51.7907 56.015C51.9607 55.8733 52.1024 55.7317 52.2724 55.6183C52.5841 55.3633 52.8957 55.1083 53.1791 54.8533C53.1791 54.825 53.1791 54.825 53.1507 54.7967C58.7891 49.6117 62.3307 42.2167 62.3307 34ZM47.9941 48.0817C40.3157 42.925 27.7357 42.925 20.0007 48.0817C18.7541 48.9033 17.7341 49.8667 16.8841 50.915C12.5774 46.5517 9.91406 40.5733 9.91406 34C9.91406 20.7117 20.7091 9.91667 33.9974 9.91667C47.2857 9.91667 58.0807 20.7117 58.0807 34C58.0807 40.5733 55.4174 46.5517 51.1107 50.915C50.2891 49.8667 49.2407 48.9033 47.9941 48.0817Z" fill="#717171"/>
<path d="M34 19.635C28.135 19.635 23.375 24.395 23.375 30.26C23.375 36.0117 27.88 40.6867 33.8583 40.8567C33.9433 40.8567 34.0567 40.8567 34.1133 40.8567C34.17 40.8567 34.255 40.8567 34.3117 40.8567C34.34 40.8567 34.3683 40.8567 34.3683 40.8567C40.0917 40.6583 44.5967 36.0117 44.625 30.26C44.625 24.395 39.865 19.635 34 19.635Z" fill="#717171"/>
</svg>
