<svg width="20" height="21" viewBox="0 0 20 21" fill="none" xmlns="http://www.w3.org/2000/svg">
<path d="M16.1859 10.2917H13.3359C12.9943 10.2917 12.7109 10.0084 12.7109 9.66669V3.84169C12.7109 3.22502 12.9526 2.65002 13.3859 2.21669C13.8193 1.78335 14.3943 1.54169 15.0109 1.54169H15.0193C16.061 1.55002 17.0443 1.95835 17.7943 2.70002C18.5443 3.45835 18.9526 4.45835 18.9526 5.50002V7.51669C18.9609 9.17502 17.8443 10.2917 16.1859 10.2917ZM13.9609 9.04169H16.1859C17.1526 9.04169 17.7109 8.48335 17.7109 7.51669V5.50002C17.7109 4.78335 17.4276 4.10002 16.9193 3.58335C16.4109 3.08335 15.736 2.80002 15.0193 2.79169C15.0193 2.79169 15.0193 2.79169 15.0109 2.79169C14.7359 2.79169 14.4693 2.90002 14.2693 3.10002C14.0693 3.30002 13.9609 3.55835 13.9609 3.84169V9.04169Z" fill="#717171"/>
<path d="M7.49687 19.9417C7.1052 19.9417 6.73854 19.7917 6.46354 19.5084L5.08018 18.1167C5.00518 18.0417 4.88855 18.0334 4.80522 18.1L3.3802 19.1667C2.93853 19.5 2.35518 19.5584 1.85518 19.3084C1.35518 19.0584 1.04688 18.5584 1.04688 18V5.50002C1.04688 2.98335 2.48854 1.54169 5.00521 1.54169H15.0052C15.3469 1.54169 15.6302 1.82502 15.6302 2.16669C15.6302 2.50835 15.3469 2.79169 15.0052 2.79169C14.4302 2.79169 13.9635 3.25835 13.9635 3.83335V18C13.9635 18.5584 13.6552 19.0584 13.1552 19.3084C12.6635 19.5584 12.0719 19.5 11.6302 19.1667L10.2052 18.1C10.1219 18.0334 10.0052 18.05 9.93853 18.1167L8.53853 19.5167C8.2552 19.7917 7.88853 19.9417 7.49687 19.9417ZM4.92184 16.8084C5.30518 16.8084 5.68018 16.95 5.96351 17.2417L7.34687 18.6334C7.39687 18.6834 7.46353 18.6917 7.49687 18.6917C7.5302 18.6917 7.59686 18.6834 7.64686 18.6334L9.04685 17.2334C9.56352 16.7167 10.3802 16.6667 10.9552 17.1084L12.3718 18.1667C12.4635 18.2334 12.5469 18.2084 12.5885 18.1834C12.6302 18.1584 12.7052 18.1084 12.7052 18V3.83335C12.7052 3.45835 12.7969 3.10002 12.9552 2.79169H4.99687C3.14687 2.79169 2.28853 3.65002 2.28853 5.50002V18C2.28853 18.1167 2.36355 18.1667 2.40521 18.1917C2.45521 18.2167 2.53855 18.2334 2.62189 18.1667L4.04685 17.1C4.30519 16.9084 4.61351 16.8084 4.92184 16.8084Z" fill="#717171"/>
<path d="M10 8.625H5C4.65833 8.625 4.375 8.34167 4.375 8C4.375 7.65833 4.65833 7.375 5 7.375H10C10.3417 7.375 10.625 7.65833 10.625 8C10.625 8.34167 10.3417 8.625 10 8.625Z" fill="#717171"/>
<path d="M9.375 11.9583H5.625C5.28333 11.9583 5 11.675 5 11.3333C5 10.9916 5.28333 10.7083 5.625 10.7083H9.375C9.71667 10.7083 10 10.9916 10 11.3333C10 11.675 9.71667 11.9583 9.375 11.9583Z" fill="#717171"/>
</svg>
