<svg width="20" height="21" viewBox="0 0 20 21" fill="none" xmlns="http://www.w3.org/2000/svg">
<path d="M4.10781 19.4584C3.75781 19.4584 3.43281 19.375 3.14115 19.2084C2.49948 18.8334 2.13281 18.075 2.13281 17.1334V5.38335C2.13281 3.26669 3.85781 1.54169 5.97448 1.54169H14.0161C16.1328 1.54169 17.8578 3.26669 17.8578 5.38335V17.125C17.8578 18.0667 17.4911 18.825 16.8495 19.2C16.2078 19.575 15.3661 19.5334 14.5411 19.075L10.4745 16.8167C10.2328 16.6834 9.75781 16.6834 9.51615 16.8167L5.44948 19.075C4.99948 19.325 4.54115 19.4584 4.10781 19.4584ZM5.98281 2.79169C4.55781 2.79169 3.39115 3.95835 3.39115 5.38335V17.125C3.39115 17.6167 3.53281 17.9834 3.78281 18.125C4.03281 18.275 4.42448 18.225 4.84948 17.9834L8.91615 15.725C9.53281 15.3834 10.4661 15.3834 11.0828 15.725L15.1495 17.9834C15.5745 18.225 15.9661 18.275 16.2161 18.125C16.4661 17.975 16.6078 17.6084 16.6078 17.125V5.38335C16.6078 3.95835 15.4411 2.79169 14.0161 2.79169H5.98281V2.79169Z" fill="#717171"/>
</svg>
