<svg width="20" height="20" viewBox="0 0 20 20" fill="none" xmlns="http://www.w3.org/2000/svg">
<path d="M14.1641 17.7083H5.83073C2.78906 17.7083 1.03906 15.9583 1.03906 12.9167V7.08332C1.03906 4.04166 2.78906 2.29166 5.83073 2.29166H14.1641C17.2057 2.29166 18.9557 4.04166 18.9557 7.08332V12.9167C18.9557 15.9583 17.2057 17.7083 14.1641 17.7083ZM5.83073 3.54166C3.4474 3.54166 2.28906 4.69999 2.28906 7.08332V12.9167C2.28906 15.3 3.4474 16.4583 5.83073 16.4583H14.1641C16.5474 16.4583 17.7057 15.3 17.7057 12.9167V7.08332C17.7057 4.69999 16.5474 3.54166 14.1641 3.54166H5.83073Z" fill="#353535"/>
<path d="M9.99705 10.725C9.29705 10.725 8.58872 10.5083 8.04705 10.0666L5.43871 7.98331C5.17205 7.76664 5.12205 7.37497 5.33872 7.10831C5.55538 6.84164 5.94705 6.79164 6.21372 7.00831L8.82204 9.09164C9.45538 9.59998 10.5304 9.59998 11.1637 9.09164L13.772 7.00831C14.0387 6.79164 14.4387 6.83331 14.647 7.10831C14.8637 7.37497 14.8221 7.77498 14.5471 7.98331L11.9387 10.0666C11.4054 10.5083 10.697 10.725 9.99705 10.725Z" fill="#353535"/>
</svg>
