<svg width="20" height="20" viewBox="0 0 20 20" fill="none" xmlns="http://www.w3.org/2000/svg">
<path d="M10.0026 10.625C7.36094 10.625 5.21094 8.47499 5.21094 5.83332C5.21094 3.19166 7.36094 1.04166 10.0026 1.04166C12.6443 1.04166 14.7943 3.19166 14.7943 5.83332C14.7943 8.47499 12.6443 10.625 10.0026 10.625ZM10.0026 2.29166C8.0526 2.29166 6.46094 3.88332 6.46094 5.83332C6.46094 7.78332 8.0526 9.37499 10.0026 9.37499C11.9526 9.37499 13.5443 7.78332 13.5443 5.83332C13.5443 3.88332 11.9526 2.29166 10.0026 2.29166Z" fill="#505050"/>
<path d="M17.1604 18.9583C16.8187 18.9583 16.5354 18.675 16.5354 18.3333C16.5354 15.4583 13.6021 13.125 10.0021 13.125C6.40208 13.125 3.46875 15.4583 3.46875 18.3333C3.46875 18.675 3.18542 18.9583 2.84375 18.9583C2.50208 18.9583 2.21875 18.675 2.21875 18.3333C2.21875 14.775 5.71041 11.875 10.0021 11.875C14.2937 11.875 17.7854 14.775 17.7854 18.3333C17.7854 18.675 17.5021 18.9583 17.1604 18.9583Z" fill="#505050"/>
</svg>
