<svg width="139" height="71" viewBox="0 0 139 71" fill="none" xmlns="http://www.w3.org/2000/svg">
<g filter="url(#filter0_d_10407_15220)">
<path d="M39.0716 58.6755H38.1221C38.0352 59.944 37.4891 60.9329 36.4837 61.6421C35.4846 62.3571 34.1162 62.7146 32.3785 62.7146H31.3173V60.5004H32.3227C34.4451 60.5004 35.5963 59.8921 35.7763 58.6755H34.6685C33.5018 58.6755 32.6081 58.3958 31.9875 57.8365C31.3669 57.2714 31.0566 56.4584 31.0566 55.3974C31.0566 54.8785 31.1311 54.3999 31.2801 53.9617C31.4352 53.5177 31.6586 53.1285 31.9503 52.7941C32.2482 52.4539 32.6267 52.1886 33.086 51.9984C33.5514 51.8081 34.0758 51.7129 34.6592 51.7129C35.7452 51.7129 36.5955 52.0416 37.2098 52.6989C37.8242 53.3563 38.1314 54.2298 38.1314 55.3196V56.4267H39.0716C39.1399 56.4267 39.1957 56.5478 39.2392 56.79C39.2826 57.0321 39.3043 57.2657 39.3043 57.4905V57.5857C39.3043 57.8221 39.2826 58.0643 39.2392 58.3122C39.2019 58.5544 39.1461 58.6755 39.0716 58.6755ZM33.3559 55.3628C33.3559 55.7434 33.4521 56.0173 33.6445 56.1845C33.8431 56.346 34.1813 56.4267 34.6592 56.4267H35.8135V55.311C35.8135 54.3653 35.4163 53.8925 34.622 53.8925C33.7779 53.8925 33.3559 54.3826 33.3559 55.3628Z" fill="#CB1B1B"/>
<path d="M41.3989 56.4267C41.4733 56.4267 41.5292 56.5478 41.5664 56.79C41.6099 57.0321 41.6316 57.2657 41.6316 57.4905V57.5857C41.6316 57.8221 41.6099 58.0643 41.5664 58.3122C41.5292 58.5544 41.4733 58.6755 41.3989 58.6755H38.9785C38.9041 58.6755 38.8482 58.5544 38.811 58.3122C38.7675 58.0643 38.7458 57.8221 38.7458 57.5857V57.4905C38.7458 57.2657 38.7675 57.0321 38.811 56.79C38.8482 56.5478 38.9041 56.4267 38.9785 56.4267H41.3989Z" fill="#CB1B1B"/>
<path d="M43.7261 56.4267C43.8006 56.4267 43.8564 56.5478 43.8936 56.79C43.9371 57.0321 43.9588 57.2657 43.9588 57.4905V57.5857C43.9588 57.8221 43.9371 58.0643 43.8936 58.3122C43.8564 58.5544 43.8006 58.6755 43.7261 58.6755H41.3058C41.2313 58.6755 41.1754 58.5544 41.1382 58.3122C41.0948 58.0643 41.073 57.8221 41.073 57.5857V57.4905C41.073 57.2657 41.0948 57.0321 41.1382 56.79C41.1754 56.5478 41.2313 56.4267 41.3058 56.4267H43.7261Z" fill="#CB1B1B"/>
<path d="M46.0533 56.4267C46.1278 56.4267 46.1836 56.5478 46.2209 56.79C46.2643 57.0321 46.286 57.2657 46.286 57.4905V57.5857C46.286 57.8221 46.2643 58.0643 46.2209 58.3122C46.1836 58.5544 46.1278 58.6755 46.0533 58.6755H43.633C43.5585 58.6755 43.5027 58.5544 43.4654 58.3122C43.422 58.0643 43.4003 57.8221 43.4003 57.5857V57.4905C43.4003 57.2657 43.422 57.0321 43.4654 56.79C43.5027 56.5478 43.5585 56.4267 43.633 56.4267H46.0533Z" fill="#CB1B1B"/>
<path d="M48.3805 56.4267C48.455 56.4267 48.5109 56.5478 48.5481 56.79C48.5916 57.0321 48.6133 57.2657 48.6133 57.4905V57.5857C48.6133 57.8221 48.5916 58.0643 48.5481 58.3122C48.5109 58.5544 48.455 58.6755 48.3805 58.6755H45.9602C45.8858 58.6755 45.8299 58.5544 45.7927 58.3122C45.7492 58.0643 45.7275 57.8221 45.7275 57.5857V57.4905C45.7275 57.2657 45.7492 57.0321 45.7927 56.79C45.8299 56.5478 45.8858 56.4267 45.9602 56.4267H48.3805Z" fill="#CB1B1B"/>
<path d="M50.7078 56.4267C50.7823 56.4267 50.8381 56.5478 50.8753 56.79C50.9188 57.0321 50.9405 57.2657 50.9405 57.4905V57.5857C50.9405 57.8221 50.9188 58.0643 50.8753 58.3122C50.8381 58.5544 50.7823 58.6755 50.7078 58.6755H48.2875C48.213 58.6755 48.1571 58.5544 48.1199 58.3122C48.0765 58.0643 48.0547 57.8221 48.0547 57.5857V57.4905C48.0547 57.2657 48.0765 57.0321 48.1199 56.79C48.1571 56.5478 48.213 56.4267 48.2875 56.4267H50.7078Z" fill="#CB1B1B"/>
<path d="M53.035 56.4267C53.1095 56.4267 53.1653 56.5478 53.2026 56.79C53.246 57.0321 53.2677 57.2657 53.2677 57.4905V57.5857C53.2677 57.8221 53.246 58.0643 53.2026 58.3122C53.1653 58.5544 53.1095 58.6755 53.035 58.6755H50.6147C50.5402 58.6755 50.4844 58.5544 50.4471 58.3122C50.4037 58.0643 50.382 57.8221 50.382 57.5857V57.4905C50.382 57.2657 50.4037 57.0321 50.4471 56.79C50.4844 56.5478 50.5402 56.4267 50.6147 56.4267H53.035Z" fill="#CB1B1B"/>
<path d="M55.3622 56.4267C55.4367 56.4267 55.4926 56.5478 55.5298 56.79C55.5732 57.0321 55.595 57.2657 55.595 57.4905V57.5857C55.595 57.8221 55.5732 58.0643 55.5298 58.3122C55.4926 58.5544 55.4367 58.6755 55.3622 58.6755H52.9419C52.8674 58.6755 52.8116 58.5544 52.7744 58.3122C52.7309 58.0643 52.7092 57.8221 52.7092 57.5857V57.4905C52.7092 57.2657 52.7309 57.0321 52.7744 56.79C52.8116 56.5478 52.8674 56.4267 52.9419 56.4267H55.3622Z" fill="#CB1B1B"/>
<path d="M57.6895 56.4267C57.7639 56.4267 57.8198 56.5478 57.857 56.79C57.9005 57.0321 57.9222 57.2657 57.9222 57.4905V57.5857C57.9222 57.8221 57.9005 58.0643 57.857 58.3122C57.8198 58.5544 57.7639 58.6755 57.6895 58.6755H55.2692C55.1947 58.6755 55.1388 58.5544 55.1016 58.3122C55.0581 58.0643 55.0364 57.8221 55.0364 57.5857V57.4905C55.0364 57.2657 55.0581 57.0321 55.1016 56.79C55.1388 56.5478 55.1947 56.4267 55.2692 56.4267H57.6895Z" fill="#CB1B1B"/>
<path d="M60.0167 56.4267C60.0912 56.4267 60.147 56.5478 60.1843 56.79C60.2277 57.0321 60.2494 57.2657 60.2494 57.4905V57.5857C60.2494 57.8221 60.2277 58.0643 60.1843 58.3122C60.147 58.5544 60.0912 58.6755 60.0167 58.6755H57.5964C57.5219 58.6755 57.4661 58.5544 57.4288 58.3122C57.3854 58.0643 57.3637 57.8221 57.3637 57.5857V57.4905C57.3637 57.2657 57.3854 57.0321 57.4288 56.79C57.4661 56.5478 57.5219 56.4267 57.5964 56.4267H60.0167Z" fill="#CB1B1B"/>
<path d="M62.3439 56.4267C62.4184 56.4267 62.4743 56.5478 62.5115 56.79C62.5549 57.0321 62.5767 57.2657 62.5767 57.4905V57.5857C62.5767 57.8221 62.5549 58.0643 62.5115 58.3122C62.4743 58.5544 62.4184 58.6755 62.3439 58.6755H59.9236C59.8491 58.6755 59.7933 58.5544 59.7561 58.3122C59.7126 58.0643 59.6909 57.8221 59.6909 57.5857V57.4905C59.6909 57.2657 59.7126 57.0321 59.7561 56.79C59.7933 56.5478 59.8491 56.4267 59.9236 56.4267H62.3439Z" fill="#CB1B1B"/>
<path d="M64.6712 56.4267C64.7456 56.4267 64.8015 56.5478 64.8387 56.79C64.8822 57.0321 64.9039 57.2657 64.9039 57.4905V57.5857C64.9039 57.8221 64.8822 58.0643 64.8387 58.3122C64.8015 58.5544 64.7456 58.6755 64.6712 58.6755H62.2508C62.1764 58.6755 62.1205 58.5544 62.0833 58.3122C62.0398 58.0643 62.0181 57.8221 62.0181 57.5857V57.4905C62.0181 57.2657 62.0398 57.0321 62.0833 56.79C62.1205 56.5478 62.1764 56.4267 62.2508 56.4267H64.6712Z" fill="#CB1B1B"/>
<path d="M66.9984 56.4267C67.0729 56.4267 67.1287 56.5478 67.166 56.79C67.2094 57.0321 67.2311 57.2657 67.2311 57.4905V57.5857C67.2311 57.8221 67.2094 58.0643 67.166 58.3122C67.1287 58.5544 67.0729 58.6755 66.9984 58.6755H64.5781C64.5036 58.6755 64.4478 58.5544 64.4105 58.3122C64.3671 58.0643 64.3454 57.8221 64.3454 57.5857V57.4905C64.3454 57.2657 64.3671 57.0321 64.4105 56.79C64.4478 56.5478 64.5036 56.4267 64.5781 56.4267H66.9984Z" fill="#CB1B1B"/>
<path d="M69.3256 56.4267C69.4001 56.4267 69.456 56.5478 69.4932 56.79C69.5366 57.0321 69.5583 57.2657 69.5583 57.4905V57.5857C69.5583 57.8221 69.5366 58.0643 69.4932 58.3122C69.456 58.5544 69.4001 58.6755 69.3256 58.6755H66.9053C66.8308 58.6755 66.775 58.5544 66.7377 58.3122C66.6943 58.0643 66.6726 57.8221 66.6726 57.5857V57.4905C66.6726 57.2657 66.6943 57.0321 66.7377 56.79C66.775 56.5478 66.8308 56.4267 66.9053 56.4267H69.3256Z" fill="#CB1B1B"/>
<path d="M71.6529 56.4267C71.7273 56.4267 71.7832 56.5478 71.8204 56.79C71.8639 57.0321 71.8856 57.2657 71.8856 57.4905V57.5857C71.8856 57.8221 71.8639 58.0643 71.8204 58.3122C71.7832 58.5544 71.7273 58.6755 71.6529 58.6755H69.2325C69.1581 58.6755 69.1022 58.5544 69.065 58.3122C69.0215 58.0643 68.9998 57.8221 68.9998 57.5857V57.4905C68.9998 57.2657 69.0215 57.0321 69.065 56.79C69.1022 56.5478 69.1581 56.4267 69.2325 56.4267H71.6529Z" fill="#CB1B1B"/>
<path d="M73.9801 56.4267C74.0546 56.4267 74.1104 56.5478 74.1476 56.79C74.1911 57.0321 74.2128 57.2657 74.2128 57.4905V57.5857C74.2128 57.8221 74.1911 58.0643 74.1476 58.3122C74.1104 58.5544 74.0546 58.6755 73.9801 58.6755H71.5598C71.4853 58.6755 71.4294 58.5544 71.3922 58.3122C71.3488 58.0643 71.327 57.8221 71.327 57.5857V57.4905C71.327 57.2657 71.3488 57.0321 71.3922 56.79C71.4294 56.5478 71.4853 56.4267 71.5598 56.4267H73.9801Z" fill="#CB1B1B"/>
<path d="M76.3073 56.4267C76.3818 56.4267 76.4376 56.5478 76.4749 56.79C76.5183 57.0321 76.54 57.2657 76.54 57.4905V57.5857C76.54 57.8221 76.5183 58.0643 76.4749 58.3122C76.4376 58.5544 76.3818 58.6755 76.3073 58.6755H73.887C73.8125 58.6755 73.7567 58.5544 73.7194 58.3122C73.676 58.0643 73.6543 57.8221 73.6543 57.5857V57.4905C73.6543 57.2657 73.676 57.0321 73.7194 56.79C73.7567 56.5478 73.8125 56.4267 73.887 56.4267H76.3073Z" fill="#CB1B1B"/>
<path d="M78.6346 56.4267C78.709 56.4267 78.7649 56.5478 78.8021 56.79C78.8456 57.0321 78.8673 57.2657 78.8673 57.4905V57.5857C78.8673 57.8221 78.8456 58.0643 78.8021 58.3122C78.7649 58.5544 78.709 58.6755 78.6346 58.6755H76.2142C76.1398 58.6755 76.0839 58.5544 76.0467 58.3122C76.0032 58.0643 75.9815 57.8221 75.9815 57.5857V57.4905C75.9815 57.2657 76.0032 57.0321 76.0467 56.79C76.0839 56.5478 76.1398 56.4267 76.2142 56.4267H78.6346Z" fill="#CB1B1B"/>
<path d="M80.9618 56.4267C81.0363 56.4267 81.0921 56.5478 81.1293 56.79C81.1728 57.0321 81.1945 57.2657 81.1945 57.4905V57.5857C81.1945 57.8221 81.1728 58.0643 81.1293 58.3122C81.0921 58.5544 81.0363 58.6755 80.9618 58.6755H78.5415C78.467 58.6755 78.4111 58.5544 78.3739 58.3122C78.3305 58.0643 78.3087 57.8221 78.3087 57.5857V57.4905C78.3087 57.2657 78.3305 57.0321 78.3739 56.79C78.4111 56.5478 78.467 56.4267 78.5415 56.4267H80.9618Z" fill="#CB1B1B"/>
<path d="M83.289 56.4267C83.3635 56.4267 83.4193 56.5478 83.4566 56.79C83.5 57.0321 83.5217 57.2657 83.5217 57.4905V57.5857C83.5217 57.8221 83.5 58.0643 83.4566 58.3122C83.4193 58.5544 83.3635 58.6755 83.289 58.6755H80.8687C80.7942 58.6755 80.7384 58.5544 80.7011 58.3122C80.6577 58.0643 80.636 57.8221 80.636 57.5857V57.4905C80.636 57.2657 80.6577 57.0321 80.7011 56.79C80.7384 56.5478 80.7942 56.4267 80.8687 56.4267H83.289Z" fill="#CB1B1B"/>
<path d="M85.6162 56.4267C85.6907 56.4267 85.7466 56.5478 85.7838 56.79C85.8272 57.0321 85.849 57.2657 85.849 57.4905V57.5857C85.849 57.8221 85.8272 58.0643 85.7838 58.3122C85.7466 58.5544 85.6907 58.6755 85.6162 58.6755H83.1959C83.1215 58.6755 83.0656 58.5544 83.0284 58.3122C82.9849 58.0643 82.9632 57.8221 82.9632 57.5857V57.4905C82.9632 57.2657 82.9849 57.0321 83.0284 56.79C83.0656 56.5478 83.1215 56.4267 83.1959 56.4267H85.6162Z" fill="#CB1B1B"/>
<path d="M93.1192 58.6755H92.9331C91.7415 58.6755 90.8417 58.3497 90.2335 57.6981C89.526 58.3497 88.4865 58.6755 87.115 58.6755H85.5232C85.4487 58.6755 85.3928 58.5544 85.3556 58.3122C85.3122 58.0643 85.2904 57.8221 85.2904 57.5857V57.4905C85.2904 57.2657 85.3122 57.0321 85.3556 56.79C85.399 56.5478 85.4549 56.4267 85.5232 56.4267H87.1615C87.869 56.4267 88.3562 56.3229 88.623 56.1153C88.8961 55.9077 89.0326 55.5647 89.0326 55.0861V52.5086H91.3692V55.0861C91.3692 55.5877 91.4747 55.9366 91.6857 56.1326C91.9029 56.3287 92.3156 56.4267 92.9237 56.4267H93.1192C93.1875 56.4267 93.2434 56.5478 93.2868 56.79C93.3302 57.0321 93.352 57.2657 93.352 57.4905V57.5857C93.352 57.8221 93.3302 58.0643 93.2868 58.3122C93.2496 58.5544 93.1937 58.6755 93.1192 58.6755ZM88.1017 49.4555L89.7029 47.9679L91.304 49.4555L89.7029 50.9432L88.1017 49.4555Z" fill="#CB1B1B"/>
<path d="M95.7164 61.5383L97.2803 60.0766L98.8535 61.5383C98.8163 61.5729 98.7791 61.6104 98.7418 61.6507C98.6611 61.7257 98.4439 61.9246 98.0902 62.2475C97.7365 62.5762 97.4665 62.827 97.2803 63L95.7164 61.5383ZM92.3466 61.5383L93.9198 60.0766L95.4837 61.5383L93.9198 63L92.3466 61.5383ZM101.311 58.6755H101.116C99.9116 58.6755 99.0118 58.3526 98.416 57.7068C97.7209 58.3526 96.6815 58.6755 95.2975 58.6755H93.0541C92.9796 58.6755 92.9237 58.5544 92.8865 58.3122C92.8431 58.0643 92.8214 57.8221 92.8214 57.5857V57.4905C92.8214 57.2657 92.8431 57.0321 92.8865 56.79C92.93 56.5478 92.9858 56.4267 93.0541 56.4267H95.3441C96.0515 56.4267 96.5387 56.3229 96.8056 56.1153C97.0786 55.9077 97.2152 55.5647 97.2152 55.0861V52.5086H99.5517V55.0861C99.5517 55.5877 99.6572 55.9366 99.8682 56.1326C100.085 56.3287 100.498 56.4267 101.106 56.4267H101.311C101.379 56.4267 101.435 56.5478 101.479 56.79C101.522 57.0321 101.544 57.2657 101.544 57.4905V57.5857C101.544 57.8221 101.522 58.0643 101.479 58.3122C101.441 58.5544 101.386 58.6755 101.311 58.6755Z" fill="#CB1B1B"/>
<path d="M104.597 48.7376L106.198 47.25L107.799 48.7376L106.198 50.2253L104.597 48.7376ZM110.825 58.6755H109.559C109.006 58.6755 108.439 58.6236 107.855 58.5198C107.272 58.4102 106.735 58.243 106.245 58.0181C105.283 58.4563 104.175 58.6755 102.922 58.6755H101.218C101.144 58.6755 101.088 58.5544 101.05 58.3122C101.007 58.0643 100.985 57.8221 100.985 57.5857V57.4905C100.985 57.2657 101.007 57.0321 101.05 56.79C101.094 56.5478 101.15 56.4267 101.218 56.4267H103.191C102.807 55.8847 102.614 55.2764 102.614 54.6017C102.614 53.6446 102.968 52.8373 103.676 52.18C104.383 51.5169 105.249 51.1853 106.273 51.1853C107.291 51.1853 108.153 51.514 108.861 52.1713C109.568 52.8229 109.922 53.6301 109.922 54.5931C109.922 55.2735 109.733 55.8847 109.354 56.4267H110.825C110.893 56.4267 110.949 56.5478 110.992 56.79C111.036 57.0321 111.058 57.2657 111.058 57.4905V57.5857C111.058 57.8221 111.036 58.0643 110.992 58.3122C110.955 58.5544 110.899 58.6755 110.825 58.6755ZM107.613 54.6104C107.613 54.2702 107.486 53.9819 107.232 53.7455C106.977 53.5091 106.654 53.3909 106.263 53.3909C105.86 53.3909 105.531 53.5062 105.277 53.7368C105.028 53.9617 104.904 54.2529 104.904 54.6104C104.904 54.939 105.038 55.2245 105.305 55.4666C105.578 55.7088 105.897 55.8299 106.263 55.8299C106.63 55.8299 106.946 55.7117 107.213 55.4753C107.48 55.2331 107.613 54.9448 107.613 54.6104Z" fill="#CB1B1B"/>
<path d="M120.339 58.6755H119.073C118.52 58.6755 117.952 58.6236 117.369 58.5198C116.786 58.4102 116.249 58.243 115.759 58.0181C114.797 58.4563 113.689 58.6755 112.435 58.6755H110.732C110.657 58.6755 110.601 58.5544 110.564 58.3122C110.521 58.0643 110.499 57.8221 110.499 57.5857V57.4905C110.499 57.2657 110.521 57.0321 110.564 56.79C110.608 56.5478 110.663 56.4267 110.732 56.4267H112.705C112.32 55.8847 112.128 55.2764 112.128 54.6017C112.128 53.6446 112.482 52.8373 113.189 52.18C113.897 51.5169 114.762 51.1853 115.786 51.1853C116.804 51.1853 117.667 51.514 118.374 52.1713C119.082 52.8229 119.436 53.6301 119.436 54.5931C119.436 55.2735 119.246 55.8847 118.868 56.4267H120.339C120.407 56.4267 120.463 56.5478 120.506 56.79C120.55 57.0321 120.571 57.2657 120.571 57.4905V57.5857C120.571 57.8221 120.55 58.0643 120.506 58.3122C120.469 58.5544 120.413 58.6755 120.339 58.6755ZM117.127 54.6104C117.127 54.2702 117 53.9819 116.745 53.7455C116.491 53.5091 116.168 53.3909 115.777 53.3909C115.374 53.3909 115.045 53.5062 114.79 53.7368C114.542 53.9617 114.418 54.2529 114.418 54.6104C114.418 54.939 114.551 55.2245 114.818 55.4666C115.091 55.7088 115.411 55.8299 115.777 55.8299C116.143 55.8299 116.46 55.7117 116.727 55.4753C116.994 55.2331 117.127 54.9448 117.127 54.6104ZM115.759 48.729L117.322 47.2673L118.896 48.729C118.858 48.7636 118.821 48.8011 118.784 48.8414C118.703 48.9164 118.486 49.1182 118.132 49.4469C117.779 49.7698 117.509 50.0177 117.322 50.1907L115.759 48.729ZM112.389 48.729L113.962 47.2673L115.526 48.729L113.962 50.1907L112.389 48.729Z" fill="#CB1B1B"/>
<path d="M120.245 56.4267H121.13C121.781 56.4267 122.25 56.32 122.535 56.1067C122.821 55.8876 122.964 55.5502 122.964 55.0947V52.5H125.3V52.846L125.309 55.112C125.316 55.5848 125.421 55.9222 125.626 56.124C125.837 56.3258 126.188 56.4267 126.678 56.4267C127.131 56.4267 127.46 56.3258 127.665 56.124C127.876 55.9164 127.981 55.5762 127.981 55.1034L127.99 52.846V52.5H130.318V52.846L130.327 55.0861C130.333 55.5704 130.439 55.9135 130.644 56.1153C130.848 56.3171 131.18 56.418 131.64 56.418C131.987 56.418 132.238 56.3229 132.394 56.1326C132.549 55.9423 132.626 55.605 132.626 55.1207V52.2232H135V55.1899C135 56.2681 134.708 57.1186 134.125 57.7414C133.542 58.3641 132.732 58.6755 131.695 58.6755C130.622 58.6755 129.793 58.3526 129.21 57.7068C128.62 58.3526 127.764 58.6755 126.641 58.6755C125.604 58.6755 124.779 58.3439 124.164 57.6808C123.5 58.3439 122.486 58.6755 121.12 58.6755H120.245C120.171 58.6755 120.115 58.5544 120.078 58.3122C120.034 58.0643 120.013 57.8221 120.013 57.5857V57.4905C120.013 57.2657 120.034 57.0321 120.078 56.79C120.121 56.5478 120.177 56.4267 120.245 56.4267Z" fill="#CB1B1B"/>
<path d="M80.8502 0H95.8343L54.2118 46.2203H39.2277L80.8502 0Z" fill="#CB1B1B"/>
<path d="M97.537 0.381356L88.6071 10.2966L120.013 46.2203H134.997L97.537 0.381356Z" fill="#CB1B1B"/>
<path d="M45.6225 0H60.6065L18.9841 46.2203H4L45.6225 0Z" fill="#CB1B1B"/>
<path d="M63.5958 0H78.5799L20.3084 63H5.32435L63.5958 0Z" fill="#9E1515"/>
</g>
<defs>
<filter id="filter0_d_10407_15220" x="0" y="0" width="139" height="71" filterUnits="userSpaceOnUse" color-interpolation-filters="sRGB">
<feFlood flood-opacity="0" result="BackgroundImageFix"/>
<feColorMatrix in="SourceAlpha" type="matrix" values="0 0 0 0 0 0 0 0 0 0 0 0 0 0 0 0 0 0 127 0" result="hardAlpha"/>
<feOffset dy="4"/>
<feGaussianBlur stdDeviation="2"/>
<feComposite in2="hardAlpha" operator="out"/>
<feColorMatrix type="matrix" values="0 0 0 0 0 0 0 0 0 0 0 0 0 0 0 0 0 0 0.25 0"/>
<feBlend mode="normal" in2="BackgroundImageFix" result="effect1_dropShadow_10407_15220"/>
<feBlend mode="normal" in="SourceGraphic" in2="effect1_dropShadow_10407_15220" result="shape"/>
</filter>
</defs>
</svg>
