<svg width="80" height="39" viewBox="0 0 80 39" fill="none" xmlns="http://www.w3.org/2000/svg">
<path d="M21.4181 36.3229H20.8382C20.7852 37.1082 20.4517 37.7203 19.8377 38.1594C19.2275 38.602 18.3919 38.8233 17.3307 38.8233H16.6826V37.4526H17.2966C18.5927 37.4526 19.2957 37.0761 19.4057 36.3229H18.7292C18.0167 36.3229 17.4709 36.1498 17.0919 35.8035C16.7129 35.4537 16.5234 34.9504 16.5234 34.2937C16.5234 33.9724 16.5689 33.6761 16.6599 33.4049C16.7546 33.13 16.8911 32.8891 17.0692 32.682C17.2511 32.4714 17.4823 32.3072 17.7627 32.1895C18.047 32.0717 18.3672 32.0128 18.7235 32.0128C19.3867 32.0128 19.9059 32.2162 20.2811 32.6231C20.6563 33.0301 20.8439 33.5708 20.8439 34.2455V34.9308H21.4181C21.4598 34.9308 21.4939 35.0058 21.5204 35.1557C21.5469 35.3056 21.5602 35.4502 21.5602 35.5894V35.6483C21.5602 35.7946 21.5469 35.9445 21.5204 36.098C21.4977 36.2479 21.4636 36.3229 21.4181 36.3229ZM17.9276 34.2722C17.9276 34.5078 17.9863 34.6774 18.1038 34.7809C18.2251 34.8808 18.4316 34.9308 18.7235 34.9308H19.4284V34.2401C19.4284 33.6547 19.1858 33.362 18.7007 33.362C18.1853 33.362 17.9276 33.6654 17.9276 34.2722Z" fill="#CB1B1B"/>
<path d="M22.8393 34.9308C22.8848 34.9308 22.9189 35.0058 22.9416 35.1557C22.9682 35.3056 22.9814 35.4502 22.9814 35.5894V35.6483C22.9814 35.7946 22.9682 35.9445 22.9416 36.098C22.9189 36.2479 22.8848 36.3229 22.8393 36.3229H21.3612C21.3158 36.3229 21.2816 36.2479 21.2589 36.098C21.2324 35.9445 21.2191 35.7946 21.2191 35.6483V35.5894C21.2191 35.4502 21.2324 35.3056 21.2589 35.1557C21.2816 35.0058 21.3158 34.9308 21.3612 34.9308H22.8393Z" fill="#CB1B1B"/>
<path d="M24.2605 34.9308C24.306 34.9308 24.3401 35.0058 24.3628 35.1557C24.3894 35.3056 24.4026 35.4502 24.4026 35.5894V35.6483C24.4026 35.7946 24.3894 35.9445 24.3628 36.098C24.3401 36.2479 24.306 36.3229 24.2605 36.3229H22.7824C22.737 36.3229 22.7029 36.2479 22.6801 36.098C22.6536 35.9445 22.6403 35.7946 22.6403 35.6483V35.5894C22.6403 35.4502 22.6536 35.3056 22.6801 35.1557C22.7029 35.0058 22.737 34.9308 22.7824 34.9308H24.2605Z" fill="#CB1B1B"/>
<path d="M25.6817 34.9308C25.7272 34.9308 25.7613 35.0058 25.784 35.1557C25.8106 35.3056 25.8238 35.4502 25.8238 35.5894V35.6483C25.8238 35.7946 25.8106 35.9445 25.784 36.098C25.7613 36.2479 25.7272 36.3229 25.6817 36.3229H24.2037C24.1582 36.3229 24.1241 36.2479 24.1013 36.098C24.0748 35.9445 24.0615 35.7946 24.0615 35.6483V35.5894C24.0615 35.4502 24.0748 35.3056 24.1013 35.1557C24.1241 35.0058 24.1582 34.9308 24.2037 34.9308H25.6817Z" fill="#CB1B1B"/>
<path d="M27.1029 34.9308C27.1484 34.9308 27.1825 35.0058 27.2053 35.1557C27.2318 35.3056 27.245 35.4502 27.245 35.5894V35.6483C27.245 35.7946 27.2318 35.9445 27.2053 36.098C27.1825 36.2479 27.1484 36.3229 27.1029 36.3229H25.6249C25.5794 36.3229 25.5453 36.2479 25.5225 36.098C25.496 35.9445 25.4827 35.7946 25.4827 35.6483V35.5894C25.4827 35.4502 25.496 35.3056 25.5225 35.1557C25.5453 35.0058 25.5794 34.9308 25.6249 34.9308H27.1029Z" fill="#CB1B1B"/>
<path d="M28.5241 34.9308C28.5696 34.9308 28.6037 35.0058 28.6265 35.1557C28.653 35.3056 28.6663 35.4502 28.6663 35.5894V35.6483C28.6663 35.7946 28.653 35.9445 28.6265 36.098C28.6037 36.2479 28.5696 36.3229 28.5241 36.3229H27.0461C27.0006 36.3229 26.9665 36.2479 26.9437 36.098C26.9172 35.9445 26.904 35.7946 26.904 35.6483V35.5894C26.904 35.4502 26.9172 35.3056 26.9437 35.1557C26.9665 35.0058 27.0006 34.9308 27.0461 34.9308H28.5241Z" fill="#CB1B1B"/>
<path d="M29.9453 34.9308C29.9908 34.9308 30.0249 35.0058 30.0477 35.1557C30.0742 35.3056 30.0875 35.4502 30.0875 35.5894V35.6483C30.0875 35.7946 30.0742 35.9445 30.0477 36.098C30.0249 36.2479 29.9908 36.3229 29.9453 36.3229H28.4673C28.4218 36.3229 28.3877 36.2479 28.365 36.098C28.3384 35.9445 28.3252 35.7946 28.3252 35.6483V35.5894C28.3252 35.4502 28.3384 35.3056 28.365 35.1557C28.3877 35.0058 28.4218 34.9308 28.4673 34.9308H29.9453Z" fill="#CB1B1B"/>
<path d="M31.3666 34.9308C31.412 34.9308 31.4461 35.0058 31.4689 35.1557C31.4954 35.3056 31.5087 35.4502 31.5087 35.5894V35.6483C31.5087 35.7946 31.4954 35.9445 31.4689 36.098C31.4461 36.2479 31.412 36.3229 31.3666 36.3229H29.8885C29.843 36.3229 29.8089 36.2479 29.7862 36.098C29.7596 35.9445 29.7464 35.7946 29.7464 35.6483V35.5894C29.7464 35.4502 29.7596 35.3056 29.7862 35.1557C29.8089 35.0058 29.843 34.9308 29.8885 34.9308H31.3666Z" fill="#CB1B1B"/>
<path d="M32.7878 34.9308C32.8332 34.9308 32.8674 35.0058 32.8901 35.1557C32.9166 35.3056 32.9299 35.4502 32.9299 35.5894V35.6483C32.9299 35.7946 32.9166 35.9445 32.8901 36.098C32.8674 36.2479 32.8332 36.3229 32.7878 36.3229H31.3097C31.2642 36.3229 31.2301 36.2479 31.2074 36.098C31.1808 35.9445 31.1676 35.7946 31.1676 35.6483V35.5894C31.1676 35.4502 31.1808 35.3056 31.2074 35.1557C31.2301 35.0058 31.2642 34.9308 31.3097 34.9308H32.7878Z" fill="#CB1B1B"/>
<path d="M34.209 34.9308C34.2545 34.9308 34.2886 35.0058 34.3113 35.1557C34.3378 35.3056 34.3511 35.4502 34.3511 35.5894V35.6483C34.3511 35.7946 34.3378 35.9445 34.3113 36.098C34.2886 36.2479 34.2545 36.3229 34.209 36.3229H32.7309C32.6854 36.3229 32.6513 36.2479 32.6286 36.098C32.6021 35.9445 32.5888 35.7946 32.5888 35.6483V35.5894C32.5888 35.4502 32.6021 35.3056 32.6286 35.1557C32.6513 35.0058 32.6854 34.9308 32.7309 34.9308H34.209Z" fill="#CB1B1B"/>
<path d="M35.6302 34.9308C35.6757 34.9308 35.7098 35.0058 35.7325 35.1557C35.759 35.3056 35.7723 35.4502 35.7723 35.5894V35.6483C35.7723 35.7946 35.759 35.9445 35.7325 36.098C35.7098 36.2479 35.6757 36.3229 35.6302 36.3229H34.1521C34.1066 36.3229 34.0725 36.2479 34.0498 36.098C34.0233 35.9445 34.01 35.7946 34.01 35.6483V35.5894C34.01 35.4502 34.0233 35.3056 34.0498 35.1557C34.0725 35.0058 34.1066 34.9308 34.1521 34.9308H35.6302Z" fill="#CB1B1B"/>
<path d="M37.0514 34.9308C37.0969 34.9308 37.131 35.0058 37.1537 35.1557C37.1802 35.3056 37.1935 35.4502 37.1935 35.5894V35.6483C37.1935 35.7946 37.1802 35.9445 37.1537 36.098C37.131 36.2479 37.0969 36.3229 37.0514 36.3229H35.5733C35.5279 36.3229 35.4937 36.2479 35.471 36.098C35.4445 35.9445 35.4312 35.7946 35.4312 35.6483V35.5894C35.4312 35.4502 35.4445 35.3056 35.471 35.1557C35.4937 35.0058 35.5279 34.9308 35.5733 34.9308H37.0514Z" fill="#CB1B1B"/>
<path d="M38.4726 34.9308C38.5181 34.9308 38.5522 35.0058 38.5749 35.1557C38.6015 35.3056 38.6147 35.4502 38.6147 35.5894V35.6483C38.6147 35.7946 38.6015 35.9445 38.5749 36.098C38.5522 36.2479 38.5181 36.3229 38.4726 36.3229H36.9945C36.9491 36.3229 36.915 36.2479 36.8922 36.098C36.8657 35.9445 36.8524 35.7946 36.8524 35.6483V35.5894C36.8524 35.4502 36.8657 35.3056 36.8922 35.1557C36.915 35.0058 36.9491 34.9308 36.9945 34.9308H38.4726Z" fill="#CB1B1B"/>
<path d="M39.8938 34.9308C39.9393 34.9308 39.9734 35.0058 39.9961 35.1557C40.0227 35.3056 40.0359 35.4502 40.0359 35.5894V35.6483C40.0359 35.7946 40.0227 35.9445 39.9961 36.098C39.9734 36.2479 39.9393 36.3229 39.8938 36.3229H38.4158C38.3703 36.3229 38.3362 36.2479 38.3134 36.098C38.2869 35.9445 38.2736 35.7946 38.2736 35.6483V35.5894C38.2736 35.4502 38.2869 35.3056 38.3134 35.1557C38.3362 35.0058 38.3703 34.9308 38.4158 34.9308H39.8938Z" fill="#CB1B1B"/>
<path d="M41.315 34.9308C41.3605 34.9308 41.3946 35.0058 41.4173 35.1557C41.4439 35.3056 41.4571 35.4502 41.4571 35.5894V35.6483C41.4571 35.7946 41.4439 35.9445 41.4173 36.098C41.3946 36.2479 41.3605 36.3229 41.315 36.3229H39.837C39.7915 36.3229 39.7574 36.2479 39.7346 36.098C39.7081 35.9445 39.6948 35.7946 39.6948 35.6483V35.5894C39.6948 35.4502 39.7081 35.3056 39.7346 35.1557C39.7574 35.0058 39.7915 34.9308 39.837 34.9308H41.315Z" fill="#CB1B1B"/>
<path d="M42.7362 34.9308C42.7817 34.9308 42.8158 35.0058 42.8386 35.1557C42.8651 35.3056 42.8784 35.4502 42.8784 35.5894V35.6483C42.8784 35.7946 42.8651 35.9445 42.8386 36.098C42.8158 36.2479 42.7817 36.3229 42.7362 36.3229H41.2582C41.2127 36.3229 41.1786 36.2479 41.1558 36.098C41.1293 35.9445 41.1161 35.7946 41.1161 35.6483V35.5894C41.1161 35.4502 41.1293 35.3056 41.1558 35.1557C41.1786 35.0058 41.2127 34.9308 41.2582 34.9308H42.7362Z" fill="#CB1B1B"/>
<path d="M44.1574 34.9308C44.2029 34.9308 44.237 35.0058 44.2598 35.1557C44.2863 35.3056 44.2996 35.4502 44.2996 35.5894V35.6483C44.2996 35.7946 44.2863 35.9445 44.2598 36.098C44.237 36.2479 44.2029 36.3229 44.1574 36.3229H42.6794C42.6339 36.3229 42.5998 36.2479 42.5771 36.098C42.5505 35.9445 42.5373 35.7946 42.5373 35.6483V35.5894C42.5373 35.4502 42.5505 35.3056 42.5771 35.1557C42.5998 35.0058 42.6339 34.9308 42.6794 34.9308H44.1574Z" fill="#CB1B1B"/>
<path d="M45.5787 34.9308C45.6241 34.9308 45.6582 35.0058 45.681 35.1557C45.7075 35.3056 45.7208 35.4502 45.7208 35.5894V35.6483C45.7208 35.7946 45.7075 35.9445 45.681 36.098C45.6582 36.2479 45.6241 36.3229 45.5787 36.3229H44.1006C44.0551 36.3229 44.021 36.2479 43.9983 36.098C43.9717 35.9445 43.9585 35.7946 43.9585 35.6483V35.5894C43.9585 35.4502 43.9717 35.3056 43.9983 35.1557C44.021 35.0058 44.0551 34.9308 44.1006 34.9308H45.5787Z" fill="#CB1B1B"/>
<path d="M46.9999 34.9308C47.0453 34.9308 47.0794 35.0058 47.1022 35.1557C47.1287 35.3056 47.142 35.4502 47.142 35.5894V35.6483C47.142 35.7946 47.1287 35.9445 47.1022 36.098C47.0794 36.2479 47.0453 36.3229 46.9999 36.3229H45.5218C45.4763 36.3229 45.4422 36.2479 45.4195 36.098C45.3929 35.9445 45.3797 35.7946 45.3797 35.6483V35.5894C45.3797 35.4502 45.3929 35.3056 45.4195 35.1557C45.4422 35.0058 45.4763 34.9308 45.5218 34.9308H46.9999Z" fill="#CB1B1B"/>
<path d="M48.4211 34.9308C48.4666 34.9308 48.5007 35.0058 48.5234 35.1557C48.5499 35.3056 48.5632 35.4502 48.5632 35.5894V35.6483C48.5632 35.7946 48.5499 35.9445 48.5234 36.098C48.5007 36.2479 48.4666 36.3229 48.4211 36.3229H46.943C46.8975 36.3229 46.8634 36.2479 46.8407 36.098C46.8142 35.9445 46.8009 35.7946 46.8009 35.6483V35.5894C46.8009 35.4502 46.8142 35.3056 46.8407 35.1557C46.8634 35.0058 46.8975 34.9308 46.943 34.9308H48.4211Z" fill="#CB1B1B"/>
<path d="M49.8423 34.9308C49.8878 34.9308 49.9219 35.0058 49.9446 35.1557C49.9711 35.3056 49.9844 35.4502 49.9844 35.5894V35.6483C49.9844 35.7946 49.9711 35.9445 49.9446 36.098C49.9219 36.2479 49.8878 36.3229 49.8423 36.3229H48.3642C48.3187 36.3229 48.2846 36.2479 48.2619 36.098C48.2354 35.9445 48.2221 35.7946 48.2221 35.6483V35.5894C48.2221 35.4502 48.2354 35.3056 48.2619 35.1557C48.2846 35.0058 48.3187 34.9308 48.3642 34.9308H49.8423Z" fill="#CB1B1B"/>
<path d="M54.4243 36.3229H54.3106C53.5829 36.3229 53.0334 36.1212 52.662 35.7179C52.2299 36.1212 51.5951 36.3229 50.7575 36.3229H49.7854C49.74 36.3229 49.7058 36.2479 49.6831 36.098C49.6566 35.9445 49.6433 35.7946 49.6433 35.6483V35.5894C49.6433 35.4502 49.6566 35.3056 49.6831 35.1557C49.7096 35.0058 49.7437 34.9308 49.7854 34.9308H50.786C51.218 34.9308 51.5155 34.8666 51.6785 34.7381C51.8452 34.6096 51.9286 34.3972 51.9286 34.1009V32.5054H53.3555V34.1009C53.3555 34.4114 53.4199 34.6274 53.5488 34.7488C53.6814 34.8701 53.9335 34.9308 54.3049 34.9308H54.4243C54.466 34.9308 54.5001 35.0058 54.5266 35.1557C54.5531 35.3056 54.5664 35.4502 54.5664 35.5894V35.6483C54.5664 35.7946 54.5531 35.9445 54.5266 36.098C54.5038 36.2479 54.4697 36.3229 54.4243 36.3229ZM51.3601 30.6153L52.3379 29.6944L53.3157 30.6153L52.3379 31.5362L51.3601 30.6153Z" fill="#CB1B1B"/>
<path d="M56.0103 38.0951L56.9654 37.1903L57.9261 38.0951C57.9034 38.1166 57.8806 38.1398 57.8579 38.1647C57.8086 38.2111 57.676 38.3343 57.46 38.5342C57.2439 38.7376 57.0791 38.8929 56.9654 39L56.0103 38.0951ZM53.9524 38.0951L54.9132 37.1903L55.8682 38.0951L54.9132 39L53.9524 38.0951ZM59.4269 36.3229H59.3075C58.5723 36.3229 58.0228 36.123 57.6589 35.7232C57.2345 36.123 56.5997 36.3229 55.7545 36.3229H54.3845C54.339 36.3229 54.3049 36.2479 54.2821 36.098C54.2556 35.9445 54.2423 35.7946 54.2423 35.6483V35.5894C54.2423 35.4502 54.2556 35.3056 54.2821 35.1557C54.3087 35.0058 54.3428 34.9308 54.3845 34.9308H55.7829C56.215 34.9308 56.5125 34.8666 56.6755 34.7381C56.8422 34.6096 56.9256 34.3972 56.9256 34.1009V32.5054H58.3525V34.1009C58.3525 34.4114 58.4169 34.6274 58.5458 34.7488C58.6784 34.8701 58.9304 34.9308 59.3019 34.9308H59.4269C59.4686 34.9308 59.5027 35.0058 59.5292 35.1557C59.5558 35.3056 59.569 35.4502 59.569 35.5894V35.6483C59.569 35.7946 59.5558 35.9445 59.5292 36.098C59.5065 36.2479 59.4724 36.3229 59.4269 36.3229Z" fill="#CB1B1B"/>
<path d="M61.4337 30.1709L62.4115 29.25L63.3893 30.1709L62.4115 31.0918L61.4337 30.1709ZM65.2368 36.3229H64.4637C64.1264 36.3229 63.7796 36.2908 63.4234 36.2265C63.0671 36.1587 62.7393 36.0552 62.4399 35.916C61.8525 36.1873 61.176 36.3229 60.4104 36.3229H59.3701C59.3246 36.3229 59.2905 36.2479 59.2677 36.098C59.2412 35.9445 59.228 35.7946 59.228 35.6483V35.5894C59.228 35.4502 59.2412 35.3056 59.2677 35.1557C59.2943 35.0058 59.3284 34.9308 59.3701 34.9308H60.5753C60.3403 34.5953 60.2228 34.2187 60.2228 33.8011C60.2228 33.2085 60.4388 32.7088 60.8709 32.3019C61.3029 31.8914 61.8316 31.6862 62.4569 31.6862C63.0785 31.6862 63.6053 31.8896 64.0373 32.2965C64.4694 32.6999 64.6854 33.1996 64.6854 33.7957C64.6854 34.2169 64.5698 34.5953 64.3386 34.9308H65.2368C65.2785 34.9308 65.3126 35.0058 65.3392 35.1557C65.3657 35.3056 65.3789 35.4502 65.3789 35.5894V35.6483C65.3789 35.7946 65.3657 35.9445 65.3392 36.098C65.3164 36.2479 65.2823 36.3229 65.2368 36.3229ZM63.2756 33.8064C63.2756 33.5958 63.1979 33.4174 63.0425 33.271C62.8871 33.1247 62.69 33.0515 62.4513 33.0515C62.2049 33.0515 62.004 33.1229 61.8487 33.2657C61.6971 33.4049 61.6213 33.5851 61.6213 33.8064C61.6213 34.0099 61.7028 34.1866 61.8657 34.3365C62.0325 34.4864 62.2276 34.5614 62.4513 34.5614C62.6749 34.5614 62.8681 34.4882 63.0311 34.3418C63.1941 34.1919 63.2756 34.0135 63.2756 33.8064Z" fill="#CB1B1B"/>
<path d="M71.0467 36.3229H70.2736C69.9363 36.3229 69.5895 36.2908 69.2333 36.2265C68.877 36.1587 68.5492 36.0552 68.2498 35.916C67.6624 36.1873 66.9859 36.3229 66.2203 36.3229H65.18C65.1345 36.3229 65.1004 36.2479 65.0777 36.098C65.0511 35.9445 65.0379 35.7946 65.0379 35.6483V35.5894C65.0379 35.4502 65.0511 35.3056 65.0777 35.1557C65.1042 35.0058 65.1383 34.9308 65.18 34.9308H66.3852C66.1502 34.5953 66.0327 34.2187 66.0327 33.8011C66.0327 33.2085 66.2487 32.7088 66.6808 32.3019C67.1128 31.8914 67.6415 31.6862 68.2668 31.6862C68.8884 31.6862 69.4152 31.8896 69.8472 32.2965C70.2793 32.6999 70.4953 33.1996 70.4953 33.7957C70.4953 34.2169 70.3797 34.5953 70.1485 34.9308H71.0467C71.0884 34.9308 71.1225 35.0058 71.1491 35.1557C71.1756 35.3056 71.1889 35.4502 71.1889 35.5894V35.6483C71.1889 35.7946 71.1756 35.9445 71.1491 36.098C71.1263 36.2479 71.0922 36.3229 71.0467 36.3229ZM69.0855 33.8064C69.0855 33.5958 69.0078 33.4174 68.8524 33.271C68.697 33.1247 68.4999 33.0515 68.2612 33.0515C68.0148 33.0515 67.814 33.1229 67.6586 33.2657C67.507 33.4049 67.4312 33.5851 67.4312 33.8064C67.4312 34.0099 67.5127 34.1866 67.6756 34.3365C67.8424 34.4864 68.0376 34.5614 68.2612 34.5614C68.4848 34.5614 68.678 34.4882 68.841 34.3418C69.004 34.1919 69.0855 34.0135 69.0855 33.8064ZM68.2498 30.1656L69.2048 29.2607L70.1656 30.1656C70.1428 30.187 70.1201 30.2102 70.0974 30.2352C70.0481 30.2816 69.9154 30.4065 69.6994 30.61C69.4834 30.8099 69.3185 30.9633 69.2048 31.0704L68.2498 30.1656ZM66.1919 30.1656L67.1526 29.2607L68.1077 30.1656L67.1526 31.0704L66.1919 30.1656Z" fill="#CB1B1B"/>
<path d="M70.9899 34.9308H71.5299C71.9279 34.9308 72.214 34.8648 72.3884 34.7327C72.5627 34.5971 72.6499 34.3882 72.6499 34.1063V32.5H74.0768V32.7142L74.0824 34.117C74.0862 34.4097 74.1507 34.6185 74.2757 34.7434C74.4046 34.8683 74.6187 34.9308 74.9181 34.9308C75.1948 34.9308 75.3956 34.8683 75.5207 34.7434C75.6496 34.6149 75.714 34.4043 75.714 34.1116L75.7197 32.7142V32.5H77.1409V32.7142L77.1466 34.1009C77.1504 34.4007 77.2148 34.6131 77.3398 34.7381C77.4649 34.863 77.6677 34.9255 77.9481 34.9255C78.1604 34.9255 78.3139 34.8666 78.4086 34.7488C78.5033 34.631 78.5507 34.4222 78.5507 34.1223V32.3287H80.0004V34.1652C80.0004 34.8326 79.8222 35.3591 79.466 35.7446C79.1097 36.1301 78.6151 36.3229 77.9822 36.3229C77.3266 36.3229 76.8206 36.123 76.4644 35.7232C76.1043 36.123 75.5813 36.3229 74.8954 36.3229C74.2625 36.3229 73.7584 36.1177 73.3832 35.7072C72.9777 36.1177 72.358 36.3229 71.5243 36.3229H70.9899C70.9444 36.3229 70.9103 36.2479 70.8876 36.098C70.861 35.9445 70.8478 35.7946 70.8478 35.6483V35.5894C70.8478 35.4502 70.861 35.3056 70.8876 35.1557C70.9141 35.0058 70.9482 34.9308 70.9899 34.9308Z" fill="#CB1B1B"/>
<path d="M46.9314 0H56.082L30.6637 28.6126H21.5131L46.9314 0Z" fill="#CB1B1B"/>
<path d="M57.1218 0.236077L51.6685 6.37409L70.8477 28.6126H79.9983L57.1218 0.236077Z" fill="#CB1B1B"/>
<path d="M25.4183 0H34.5689L9.15059 28.6126H0L25.4183 0Z" fill="#CB1B1B"/>
<path d="M36.3944 0H45.545L9.95935 39H0.808764L36.3944 0Z" fill="#9E1515"/>
</svg>
